<svg width="110" height="84" viewBox="0 0 110 84" fill="none" xmlns="http://www.w3.org/2000/svg">
<path d="M102 0H8C3.58172 0 0 3.58172 0 8V76C0 80.4183 3.58172 84 8 84H102C106.418 84 110 80.4183 110 76V8C110 3.58172 106.418 0 102 0Z" fill="#F3A006"/>
<mask id="path-2-outside-1_404_529" maskUnits="userSpaceOnUse" x="9" y="6" width="92" height="72" fill="#F3A006">
<rect fill="white" x="9" y="6" width="92" height="72"/>
<path d="M99.719 59.3437C99.6292 59.1641 99.5395 59.0744 99.3599 59.0744C99.3599 59.0744 95.0503 58.2663 92.8955 56.2013C92.3568 55.6626 89.6633 52.61 85.9822 42.8236C85.3537 38.4242 83.0193 34.8328 79.1586 32.0496C79.0689 31.9598 78.9791 31.9598 78.9791 31.87C78.8893 31.7802 78.7097 31.6904 78.6199 31.6006H78.5302C76.0162 30.0743 72.8738 29.1765 69.8212 29.1765C69.7314 29.1765 62.1896 29.3561 56.3537 29.3561C52.9419 29.3561 50.7871 29.2663 49.979 29.1765C49.4403 29.0867 48.8119 29.0867 48.0038 29.0867C44.5023 28.9071 39.205 28.6378 37.14 24.8669C36.4218 23.4304 33.7283 18.6718 31.8428 15.3499C31.9326 15.1703 32.0224 14.9907 32.0224 14.8112C32.1122 14.2725 32.0224 13.7338 31.6632 13.2848C31.3939 12.8359 30.5858 12.0279 29.688 11.13C28.7902 8.79567 26.4558 7.17957 23.8521 7.17957H23.4032C21.8769 7.17957 20.3505 7.71827 19.1834 8.79567L14.3351 7.17957C13.9759 7.08978 13.6168 7 13.2577 7C11.9109 7 10.8335 7.71827 10.4744 8.97523C10.4744 9.06502 9.7561 12.1177 11.7313 13.3746C12.5394 14.0031 14.1555 14.9907 15.5022 15.7988L12.3598 15.5294C12.0007 15.5294 11.7313 15.5294 11.462 15.5294C11.0131 15.5294 10.0254 15.5294 10.0254 16.6966C10.0254 16.7864 9.57653 18.4923 12.4496 19.3003C14.5146 19.839 17.4775 20.7369 18.4651 21.0062L17.8366 29.7152C17.657 33.3065 18.914 39.6811 22.6849 46.774C24.1214 49.4675 26.4558 51.4428 29.0595 52.8793L31.3939 62.4861L32.5611 71.7338H30.0471C29.0595 71.7338 28.1617 72.5419 28.1617 73.6193V74.0682C28.1617 75.0558 28.9697 75.9536 30.0471 75.9536H35.1648C35.2546 75.9536 35.3444 75.9536 35.4341 75.9536C35.5239 75.9536 35.6137 75.9536 35.7035 75.9536C37.14 75.8638 37.5889 74.966 37.9481 73.6193L39.5642 62.3066L39.205 56.0217C41.8985 56.3808 44.4125 56.4706 46.1184 56.4706C54.4682 56.4706 62.5487 54.5852 66.9481 51.5325C67.1277 51.7121 67.2175 51.8019 67.397 51.8917C69.3723 53.418 79.0689 61.5883 79.8769 62.3066C82.3011 66.0775 83.7376 68.322 84.0967 68.9505L83.558 72.1827H83.1091C81.9419 72.1827 81.0441 73.3499 81.0441 74.7864C81.0441 75.5047 81.3134 76.7617 83.1091 76.7617H86.6107C87.7778 76.7617 88.6757 75.8638 88.6757 74.6967V67.4242C88.6757 67.3344 88.6757 67.3344 88.6757 67.2446C88.6757 67.1549 87.4187 63.5635 86.5209 60.7802C87.4187 62.127 88.6757 63.384 89.7531 63.9227C90.6509 64.3716 91.5487 64.5511 92.5364 64.5511C96.7562 64.5511 99.6292 60.062 99.719 59.8824C99.719 59.6131 99.719 59.4335 99.719 59.3437ZM92.4466 63.4737C91.6385 63.4737 90.8305 63.2942 90.1122 62.935C88.5859 62.2168 86.4311 59.6131 86.1617 57.997V57.9072C86.1617 57.8174 86.072 57.548 86.072 57.1889L86.3413 47.2229C86.3413 46.6842 86.4311 46.2353 86.4311 45.7864C88.8552 51.8019 91.01 55.3035 92.4466 56.74C94.2422 58.5357 97.2949 59.4335 98.6416 59.7028C97.654 60.9598 95.3196 63.4737 92.4466 63.4737ZM84.9946 59.2539C84.9946 59.3437 84.9946 59.3437 84.9946 59.4335C85.2639 60.2415 87.4187 66.6162 87.6881 67.3344V74.5171C87.6881 75.1456 87.1494 75.6843 86.5209 75.6843H83.0193C82.0317 75.6843 81.8521 75.3251 81.8521 74.6069C81.8521 73.709 82.3908 72.901 83.0193 72.901H83.8274H85.2639C85.5333 72.901 85.7128 72.7214 85.7128 72.4521C85.7128 72.1827 85.5333 72.0032 85.2639 72.0032H84.3661L84.9048 68.6812C84.9048 68.5914 84.9048 68.4118 84.815 68.322C84.6354 68.1425 82.1215 64.1022 80.5054 61.4985L80.4156 61.4087C79.9667 61.0496 70.0007 52.5202 67.8459 50.9938C65.8707 49.4675 62.9976 42.2849 65.5116 38.8731C65.6911 38.6935 65.6014 38.4242 65.4218 38.2446C65.2422 38.065 64.9729 38.1548 64.7933 38.3344C62.2794 41.7462 64.3444 47.9412 66.3196 50.7245C62.01 53.5976 54.1989 55.3932 46.0286 55.3932C43.6044 55.3932 41.2701 55.2137 39.1153 54.8545L39.8335 47.4923C39.8335 47.2229 39.654 47.0434 39.4744 47.0434C39.205 47.0434 39.0255 47.2229 39.0255 47.4025L38.3072 54.8545L38.6663 62.127L37.0502 73.3499C36.6911 74.5171 36.4218 74.8762 35.6137 74.966C35.5239 74.966 35.3444 74.966 35.1648 74.966H30.0471C29.5084 74.966 29.0595 74.5171 29.0595 73.9784V73.4397C29.0595 72.901 29.5084 72.4521 30.0471 72.4521H33.0998C33.1896 72.4521 33.3691 72.3623 33.4589 72.2725C33.5487 72.1827 33.5487 72.0032 33.5487 71.9134L32.2917 62.127L28.88 47.7616L28.7902 46.8638C28.431 42.8236 27.7128 36 30.8552 35.1022C31.1245 35.0124 31.2143 34.7431 31.1245 34.5635C31.0348 34.2941 30.7654 34.2044 30.5858 34.2941C26.8149 35.4613 27.4434 42.3746 27.8923 47.0434L27.9821 48.031L28.7902 51.5325C26.4558 50.096 24.6601 48.3901 23.493 46.3251C19.8118 39.322 18.6447 33.127 18.7344 29.7152L19.3629 20.6471C19.3629 20.4675 19.2731 20.1982 19.0038 20.1982C19.0038 20.1982 15.0533 19.031 12.6292 18.4025C10.6539 17.774 10.8335 16.8762 10.8335 16.6966C10.8335 16.4273 10.8335 16.3375 11.462 16.3375C11.7313 16.3375 12.0007 16.3375 12.27 16.3375L17.4775 16.7864C17.657 16.7864 17.9264 16.6966 17.9264 16.4273C18.0162 16.2477 17.9264 15.9783 17.7468 15.8886C17.2979 15.709 13.4372 13.644 12.1802 12.6564C10.7437 11.7585 11.2824 9.1548 11.2824 9.1548C11.5518 8.34675 12.27 7.89783 13.2577 7.89783C13.527 7.89783 13.7964 7.98762 14.0657 8.0774L19.1834 9.6935C19.3629 9.78328 19.5425 9.6935 19.6323 9.60372C20.6199 8.6161 21.9666 8.0774 23.4032 8.0774H23.8521C24.6601 8.0774 25.4682 8.25697 26.1865 8.6161C25.558 8.70588 25.1988 9.24458 24.8397 9.96285L22.236 18.2229C22.1462 18.5821 22.1462 19.3003 22.5951 19.839C22.7747 20.0186 23.044 20.2879 23.5827 20.2879C23.8521 20.2879 24.1214 20.1982 24.5704 20.1084L30.6756 16.517C30.945 16.4273 31.1245 16.2477 31.3041 16.0681C33.1896 19.3901 35.7035 23.9691 36.4218 25.3158C38.6663 29.6254 44.5023 29.8948 48.0038 29.9845C48.7221 29.9845 49.3506 30.0743 49.8893 30.0743C50.7871 30.1641 52.9419 30.2539 56.3537 30.2539C62.1896 30.2539 69.7314 30.0743 69.8212 30.0743C72.6045 30.0743 75.5673 30.8824 77.9017 32.2291H77.9915C77.9915 32.3189 78.0812 32.3189 78.171 32.4087C83.558 36 85.8924 40.6688 85.3537 47.2229L84.9946 59.2539ZM31.2143 14.5418C31.1245 14.9009 30.7654 15.2601 30.1369 15.6192L24.1214 19.2105C23.5827 19.3901 23.2236 19.3003 23.1338 19.2105C23.044 19.031 22.9543 18.7616 22.9543 18.4025L25.558 10.2322C25.9171 9.51393 26.0967 9.42415 26.2762 9.42415C26.366 9.42415 26.4558 9.42415 26.6354 9.51393C27.0843 9.6935 29.2391 11.8483 31.0348 13.7338C31.2143 14.0929 31.3041 14.3622 31.2143 14.5418Z"/>
</mask>
<path d="M99.719 59.3437C99.6292 59.1641 99.5395 59.0744 99.3599 59.0744C99.3599 59.0744 95.0503 58.2663 92.8955 56.2013C92.3568 55.6626 89.6633 52.61 85.9822 42.8236C85.3537 38.4242 83.0193 34.8328 79.1586 32.0496C79.0689 31.9598 78.9791 31.9598 78.9791 31.87C78.8893 31.7802 78.7097 31.6904 78.6199 31.6006H78.5302C76.0162 30.0743 72.8738 29.1765 69.8212 29.1765C69.7314 29.1765 62.1896 29.3561 56.3537 29.3561C52.9419 29.3561 50.7871 29.2663 49.979 29.1765C49.4403 29.0867 48.8119 29.0867 48.0038 29.0867C44.5023 28.9071 39.205 28.6378 37.14 24.8669C36.4218 23.4304 33.7283 18.6718 31.8428 15.3499C31.9326 15.1703 32.0224 14.9907 32.0224 14.8112C32.1122 14.2725 32.0224 13.7338 31.6632 13.2848C31.3939 12.8359 30.5858 12.0279 29.688 11.13C28.7902 8.79567 26.4558 7.17957 23.8521 7.17957H23.4032C21.8769 7.17957 20.3505 7.71827 19.1834 8.79567L14.3351 7.17957C13.9759 7.08978 13.6168 7 13.2577 7C11.9109 7 10.8335 7.71827 10.4744 8.97523C10.4744 9.06502 9.7561 12.1177 11.7313 13.3746C12.5394 14.0031 14.1555 14.9907 15.5022 15.7988L12.3598 15.5294C12.0007 15.5294 11.7313 15.5294 11.462 15.5294C11.0131 15.5294 10.0254 15.5294 10.0254 16.6966C10.0254 16.7864 9.57653 18.4923 12.4496 19.3003C14.5146 19.839 17.4775 20.7369 18.4651 21.0062L17.8366 29.7152C17.657 33.3065 18.914 39.6811 22.6849 46.774C24.1214 49.4675 26.4558 51.4428 29.0595 52.8793L31.3939 62.4861L32.5611 71.7338H30.0471C29.0595 71.7338 28.1617 72.5419 28.1617 73.6193V74.0682C28.1617 75.0558 28.9697 75.9536 30.0471 75.9536H35.1648C35.2546 75.9536 35.3444 75.9536 35.4341 75.9536C35.5239 75.9536 35.6137 75.9536 35.7035 75.9536C37.14 75.8638 37.5889 74.966 37.9481 73.6193L39.5642 62.3066L39.205 56.0217C41.8985 56.3808 44.4125 56.4706 46.1184 56.4706C54.4682 56.4706 62.5487 54.5852 66.9481 51.5325C67.1277 51.7121 67.2175 51.8019 67.397 51.8917C69.3723 53.418 79.0689 61.5883 79.8769 62.3066C82.3011 66.0775 83.7376 68.322 84.0967 68.9505L83.558 72.1827H83.1091C81.9419 72.1827 81.0441 73.3499 81.0441 74.7864C81.0441 75.5047 81.3134 76.7617 83.1091 76.7617H86.6107C87.7778 76.7617 88.6757 75.8638 88.6757 74.6967V67.4242C88.6757 67.3344 88.6757 67.3344 88.6757 67.2446C88.6757 67.1549 87.4187 63.5635 86.5209 60.7802C87.4187 62.127 88.6757 63.384 89.7531 63.9227C90.6509 64.3716 91.5487 64.5511 92.5364 64.5511C96.7562 64.5511 99.6292 60.062 99.719 59.8824C99.719 59.6131 99.719 59.4335 99.719 59.3437ZM92.4466 63.4737C91.6385 63.4737 90.8305 63.2942 90.1122 62.935C88.5859 62.2168 86.4311 59.6131 86.1617 57.997V57.9072C86.1617 57.8174 86.072 57.548 86.072 57.1889L86.3413 47.2229C86.3413 46.6842 86.4311 46.2353 86.4311 45.7864C88.8552 51.8019 91.01 55.3035 92.4466 56.74C94.2422 58.5357 97.2949 59.4335 98.6416 59.7028C97.654 60.9598 95.3196 63.4737 92.4466 63.4737ZM84.9946 59.2539C84.9946 59.3437 84.9946 59.3437 84.9946 59.4335C85.2639 60.2415 87.4187 66.6162 87.6881 67.3344V74.5171C87.6881 75.1456 87.1494 75.6843 86.5209 75.6843H83.0193C82.0317 75.6843 81.8521 75.3251 81.8521 74.6069C81.8521 73.709 82.3908 72.901 83.0193 72.901H83.8274H85.2639C85.5333 72.901 85.7128 72.7214 85.7128 72.4521C85.7128 72.1827 85.5333 72.0032 85.2639 72.0032H84.3661L84.9048 68.6812C84.9048 68.5914 84.9048 68.4118 84.815 68.322C84.6354 68.1425 82.1215 64.1022 80.5054 61.4985L80.4156 61.4087C79.9667 61.0496 70.0007 52.5202 67.8459 50.9938C65.8707 49.4675 62.9976 42.2849 65.5116 38.8731C65.6911 38.6935 65.6014 38.4242 65.4218 38.2446C65.2422 38.065 64.9729 38.1548 64.7933 38.3344C62.2794 41.7462 64.3444 47.9412 66.3196 50.7245C62.01 53.5976 54.1989 55.3932 46.0286 55.3932C43.6044 55.3932 41.2701 55.2137 39.1153 54.8545L39.8335 47.4923C39.8335 47.2229 39.654 47.0434 39.4744 47.0434C39.205 47.0434 39.0255 47.2229 39.0255 47.4025L38.3072 54.8545L38.6663 62.127L37.0502 73.3499C36.6911 74.5171 36.4218 74.8762 35.6137 74.966C35.5239 74.966 35.3444 74.966 35.1648 74.966H30.0471C29.5084 74.966 29.0595 74.5171 29.0595 73.9784V73.4397C29.0595 72.901 29.5084 72.4521 30.0471 72.4521H33.0998C33.1896 72.4521 33.3691 72.3623 33.4589 72.2725C33.5487 72.1827 33.5487 72.0032 33.5487 71.9134L32.2917 62.127L28.88 47.7616L28.7902 46.8638C28.431 42.8236 27.7128 36 30.8552 35.1022C31.1245 35.0124 31.2143 34.7431 31.1245 34.5635C31.0348 34.2941 30.7654 34.2044 30.5858 34.2941C26.8149 35.4613 27.4434 42.3746 27.8923 47.0434L27.9821 48.031L28.7902 51.5325C26.4558 50.096 24.6601 48.3901 23.493 46.3251C19.8118 39.322 18.6447 33.127 18.7344 29.7152L19.3629 20.6471C19.3629 20.4675 19.2731 20.1982 19.0038 20.1982C19.0038 20.1982 15.0533 19.031 12.6292 18.4025C10.6539 17.774 10.8335 16.8762 10.8335 16.6966C10.8335 16.4273 10.8335 16.3375 11.462 16.3375C11.7313 16.3375 12.0007 16.3375 12.27 16.3375L17.4775 16.7864C17.657 16.7864 17.9264 16.6966 17.9264 16.4273C18.0162 16.2477 17.9264 15.9783 17.7468 15.8886C17.2979 15.709 13.4372 13.644 12.1802 12.6564C10.7437 11.7585 11.2824 9.1548 11.2824 9.1548C11.5518 8.34675 12.27 7.89783 13.2577 7.89783C13.527 7.89783 13.7964 7.98762 14.0657 8.0774L19.1834 9.6935C19.3629 9.78328 19.5425 9.6935 19.6323 9.60372C20.6199 8.6161 21.9666 8.0774 23.4032 8.0774H23.8521C24.6601 8.0774 25.4682 8.25697 26.1865 8.6161C25.558 8.70588 25.1988 9.24458 24.8397 9.96285L22.236 18.2229C22.1462 18.5821 22.1462 19.3003 22.5951 19.839C22.7747 20.0186 23.044 20.2879 23.5827 20.2879C23.8521 20.2879 24.1214 20.1982 24.5704 20.1084L30.6756 16.517C30.945 16.4273 31.1245 16.2477 31.3041 16.0681C33.1896 19.3901 35.7035 23.9691 36.4218 25.3158C38.6663 29.6254 44.5023 29.8948 48.0038 29.9845C48.7221 29.9845 49.3506 30.0743 49.8893 30.0743C50.7871 30.1641 52.9419 30.2539 56.3537 30.2539C62.1896 30.2539 69.7314 30.0743 69.8212 30.0743C72.6045 30.0743 75.5673 30.8824 77.9017 32.2291H77.9915C77.9915 32.3189 78.0812 32.3189 78.171 32.4087C83.558 36 85.8924 40.6688 85.3537 47.2229L84.9946 59.2539ZM31.2143 14.5418C31.1245 14.9009 30.7654 15.2601 30.1369 15.6192L24.1214 19.2105C23.5827 19.3901 23.2236 19.3003 23.1338 19.2105C23.044 19.031 22.9543 18.7616 22.9543 18.4025L25.558 10.2322C25.9171 9.51393 26.0967 9.42415 26.2762 9.42415C26.366 9.42415 26.4558 9.42415 26.6354 9.51393C27.0843 9.6935 29.2391 11.8483 31.0348 13.7338C31.2143 14.0929 31.3041 14.3622 31.2143 14.5418Z" fill="#FCFCFC"/>
<path d="M99.719 59.3437C99.6292 59.1641 99.5395 59.0744 99.3599 59.0744C99.3599 59.0744 95.0503 58.2663 92.8955 56.2013C92.3568 55.6626 89.6633 52.61 85.9822 42.8236C85.3537 38.4242 83.0193 34.8328 79.1586 32.0496C79.0689 31.9598 78.9791 31.9598 78.9791 31.87C78.8893 31.7802 78.7097 31.6904 78.6199 31.6006H78.5302C76.0162 30.0743 72.8738 29.1765 69.8212 29.1765C69.7314 29.1765 62.1896 29.3561 56.3537 29.3561C52.9419 29.3561 50.7871 29.2663 49.979 29.1765C49.4403 29.0867 48.8119 29.0867 48.0038 29.0867C44.5023 28.9071 39.205 28.6378 37.14 24.8669C36.4218 23.4304 33.7283 18.6718 31.8428 15.3499C31.9326 15.1703 32.0224 14.9907 32.0224 14.8112C32.1122 14.2725 32.0224 13.7338 31.6632 13.2848C31.3939 12.8359 30.5858 12.0279 29.688 11.13C28.7902 8.79567 26.4558 7.17957 23.8521 7.17957H23.4032C21.8769 7.17957 20.3505 7.71827 19.1834 8.79567L14.3351 7.17957C13.9759 7.08978 13.6168 7 13.2577 7C11.9109 7 10.8335 7.71827 10.4744 8.97523C10.4744 9.06502 9.7561 12.1177 11.7313 13.3746C12.5394 14.0031 14.1555 14.9907 15.5022 15.7988L12.3598 15.5294C12.0007 15.5294 11.7313 15.5294 11.462 15.5294C11.0131 15.5294 10.0254 15.5294 10.0254 16.6966C10.0254 16.7864 9.57653 18.4923 12.4496 19.3003C14.5146 19.839 17.4775 20.7369 18.4651 21.0062L17.8366 29.7152C17.657 33.3065 18.914 39.6811 22.6849 46.774C24.1214 49.4675 26.4558 51.4428 29.0595 52.8793L31.3939 62.4861L32.5611 71.7338H30.0471C29.0595 71.7338 28.1617 72.5419 28.1617 73.6193V74.0682C28.1617 75.0558 28.9697 75.9536 30.0471 75.9536H35.1648C35.2546 75.9536 35.3444 75.9536 35.4341 75.9536C35.5239 75.9536 35.6137 75.9536 35.7035 75.9536C37.14 75.8638 37.5889 74.966 37.9481 73.6193L39.5642 62.3066L39.205 56.0217C41.8985 56.3808 44.4125 56.4706 46.1184 56.4706C54.4682 56.4706 62.5487 54.5852 66.9481 51.5325C67.1277 51.7121 67.2175 51.8019 67.397 51.8917C69.3723 53.418 79.0689 61.5883 79.8769 62.3066C82.3011 66.0775 83.7376 68.322 84.0967 68.9505L83.558 72.1827H83.1091C81.9419 72.1827 81.0441 73.3499 81.0441 74.7864C81.0441 75.5047 81.3134 76.7617 83.1091 76.7617H86.6107C87.7778 76.7617 88.6757 75.8638 88.6757 74.6967V67.4242C88.6757 67.3344 88.6757 67.3344 88.6757 67.2446C88.6757 67.1549 87.4187 63.5635 86.5209 60.7802C87.4187 62.127 88.6757 63.384 89.7531 63.9227C90.6509 64.3716 91.5487 64.5511 92.5364 64.5511C96.7562 64.5511 99.6292 60.062 99.719 59.8824C99.719 59.6131 99.719 59.4335 99.719 59.3437ZM92.4466 63.4737C91.6385 63.4737 90.8305 63.2942 90.1122 62.935C88.5859 62.2168 86.4311 59.6131 86.1617 57.997V57.9072C86.1617 57.8174 86.072 57.548 86.072 57.1889L86.3413 47.2229C86.3413 46.6842 86.4311 46.2353 86.4311 45.7864C88.8552 51.8019 91.01 55.3035 92.4466 56.74C94.2422 58.5357 97.2949 59.4335 98.6416 59.7028C97.654 60.9598 95.3196 63.4737 92.4466 63.4737ZM84.9946 59.2539C84.9946 59.3437 84.9946 59.3437 84.9946 59.4335C85.2639 60.2415 87.4187 66.6162 87.6881 67.3344V74.5171C87.6881 75.1456 87.1494 75.6843 86.5209 75.6843H83.0193C82.0317 75.6843 81.8521 75.3251 81.8521 74.6069C81.8521 73.709 82.3908 72.901 83.0193 72.901H83.8274H85.2639C85.5333 72.901 85.7128 72.7214 85.7128 72.4521C85.7128 72.1827 85.5333 72.0032 85.2639 72.0032H84.3661L84.9048 68.6812C84.9048 68.5914 84.9048 68.4118 84.815 68.322C84.6354 68.1425 82.1215 64.1022 80.5054 61.4985L80.4156 61.4087C79.9667 61.0496 70.0007 52.5202 67.8459 50.9938C65.8707 49.4675 62.9976 42.2849 65.5116 38.8731C65.6911 38.6935 65.6014 38.4242 65.4218 38.2446C65.2422 38.065 64.9729 38.1548 64.7933 38.3344C62.2794 41.7462 64.3444 47.9412 66.3196 50.7245C62.01 53.5976 54.1989 55.3932 46.0286 55.3932C43.6044 55.3932 41.2701 55.2137 39.1153 54.8545L39.8335 47.4923C39.8335 47.2229 39.654 47.0434 39.4744 47.0434C39.205 47.0434 39.0255 47.2229 39.0255 47.4025L38.3072 54.8545L38.6663 62.127L37.0502 73.3499C36.6911 74.5171 36.4218 74.8762 35.6137 74.966C35.5239 74.966 35.3444 74.966 35.1648 74.966H30.0471C29.5084 74.966 29.0595 74.5171 29.0595 73.9784V73.4397C29.0595 72.901 29.5084 72.4521 30.0471 72.4521H33.0998C33.1896 72.4521 33.3691 72.3623 33.4589 72.2725C33.5487 72.1827 33.5487 72.0032 33.5487 71.9134L32.2917 62.127L28.88 47.7616L28.7902 46.8638C28.431 42.8236 27.7128 36 30.8552 35.1022C31.1245 35.0124 31.2143 34.7431 31.1245 34.5635C31.0348 34.2941 30.7654 34.2044 30.5858 34.2941C26.8149 35.4613 27.4434 42.3746 27.8923 47.0434L27.9821 48.031L28.7902 51.5325C26.4558 50.096 24.6601 48.3901 23.493 46.3251C19.8118 39.322 18.6447 33.127 18.7344 29.7152L19.3629 20.6471C19.3629 20.4675 19.2731 20.1982 19.0038 20.1982C19.0038 20.1982 15.0533 19.031 12.6292 18.4025C10.6539 17.774 10.8335 16.8762 10.8335 16.6966C10.8335 16.4273 10.8335 16.3375 11.462 16.3375C11.7313 16.3375 12.0007 16.3375 12.27 16.3375L17.4775 16.7864C17.657 16.7864 17.9264 16.6966 17.9264 16.4273C18.0162 16.2477 17.9264 15.9783 17.7468 15.8886C17.2979 15.709 13.4372 13.644 12.1802 12.6564C10.7437 11.7585 11.2824 9.1548 11.2824 9.1548C11.5518 8.34675 12.27 7.89783 13.2577 7.89783C13.527 7.89783 13.7964 7.98762 14.0657 8.0774L19.1834 9.6935C19.3629 9.78328 19.5425 9.6935 19.6323 9.60372C20.6199 8.6161 21.9666 8.0774 23.4032 8.0774H23.8521C24.6601 8.0774 25.4682 8.25697 26.1865 8.6161C25.558 8.70588 25.1988 9.24458 24.8397 9.96285L22.236 18.2229C22.1462 18.5821 22.1462 19.3003 22.5951 19.839C22.7747 20.0186 23.044 20.2879 23.5827 20.2879C23.8521 20.2879 24.1214 20.1982 24.5704 20.1084L30.6756 16.517C30.945 16.4273 31.1245 16.2477 31.3041 16.0681C33.1896 19.3901 35.7035 23.9691 36.4218 25.3158C38.6663 29.6254 44.5023 29.8948 48.0038 29.9845C48.7221 29.9845 49.3506 30.0743 49.8893 30.0743C50.7871 30.1641 52.9419 30.2539 56.3537 30.2539C62.1896 30.2539 69.7314 30.0743 69.8212 30.0743C72.6045 30.0743 75.5673 30.8824 77.9017 32.2291H77.9915C77.9915 32.3189 78.0812 32.3189 78.171 32.4087C83.558 36 85.8924 40.6688 85.3537 47.2229L84.9946 59.2539ZM31.2143 14.5418C31.1245 14.9009 30.7654 15.2601 30.1369 15.6192L24.1214 19.2105C23.5827 19.3901 23.2236 19.3003 23.1338 19.2105C23.044 19.031 22.9543 18.7616 22.9543 18.4025L25.558 10.2322C25.9171 9.51393 26.0967 9.42415 26.2762 9.42415C26.366 9.42415 26.4558 9.42415 26.6354 9.51393C27.0843 9.6935 29.2391 11.8483 31.0348 13.7338C31.2143 14.0929 31.3041 14.3622 31.2143 14.5418Z" stroke="white" stroke-width="2" mask="url(#path-2-outside-1_404_529)"/>
</svg>
