<svg width="330" height="84" viewBox="0 0 330 84" fill="none" xmlns="http://www.w3.org/2000/svg">
<path d="M102 0H8C3.58172 0 0 3.58172 0 8V76C0 80.4183 3.58172 84 8 84H102C106.418 84 110 80.4183 110 76V8C110 3.58172 106.418 0 102 0Z" fill="#F3A006"/>
<mask id="path-2-outside-1_1106_531" maskUnits="userSpaceOnUse" x="19" y="14" width="72" height="57" fill="black">
<rect fill="white" x="19" y="14" width="72" height="57"/>
<path d="M90 55.8393C89.9299 55.6992 89.8599 55.6291 89.7198 55.6291C89.7198 55.6291 86.3574 54.9987 84.6762 53.3875C84.2559 52.9672 82.1544 50.5855 79.2823 42.95C78.792 39.5176 76.9707 36.7156 73.9585 34.544C73.8885 34.474 73.8184 34.474 73.8184 34.4039C73.7484 34.3339 73.6083 34.2638 73.5382 34.1938H73.4682C71.5067 33.0029 69.055 32.3024 66.6733 32.3024C66.6032 32.3024 60.719 32.4425 56.1658 32.4425C53.5038 32.4425 51.8226 32.3724 51.1922 32.3024C50.7719 32.2323 50.2815 32.2323 49.6511 32.2323C46.9191 32.0922 42.7862 31.8821 41.175 28.94C40.6146 27.8192 38.5131 24.1065 37.0421 21.5147C37.1121 21.3746 37.1822 21.2345 37.1822 21.0944C37.2522 20.6741 37.1822 20.2538 36.902 19.9035C36.6918 19.5533 36.0613 18.9228 35.3608 18.2223C34.6603 16.401 32.839 15.1401 30.8076 15.1401H30.4573C29.2665 15.1401 28.0756 15.5604 27.165 16.401L23.3823 15.1401C23.1021 15.0701 22.8219 15 22.5417 15C21.4909 15 20.6503 15.5604 20.3701 16.5411C20.3701 16.6112 19.8097 18.9929 21.3508 19.9736C21.9813 20.4639 23.2422 21.2345 24.2929 21.8649L21.8412 21.6548C21.561 21.6548 21.3508 21.6548 21.1407 21.6548C20.7904 21.6548 20.0199 21.6548 20.0199 22.5654C20.0199 22.6355 19.6696 23.9664 21.9112 24.5969C23.5224 25.0172 25.834 25.7177 26.6046 25.9278L26.1142 32.7227C25.9741 35.5247 26.9548 40.4983 29.8969 46.0322C31.0177 48.1337 32.839 49.6748 34.8705 50.7957L36.6918 58.291L37.6025 65.5062H35.641C34.8705 65.5062 34.17 66.1366 34.17 66.9772V67.3275C34.17 68.098 34.8004 68.7986 35.641 68.7986H39.6339C39.704 68.7986 39.774 68.7986 39.8441 68.7986C39.9141 68.7986 39.9842 68.7986 40.0542 68.7986C41.175 68.7285 41.5253 68.028 41.8055 66.9772L43.0664 58.1509L42.7862 53.2474C44.8877 53.5276 46.8491 53.5977 48.18 53.5977C54.6947 53.5977 60.9992 52.1266 64.4317 49.7449C64.5718 49.885 64.6418 49.955 64.7819 50.0251C66.323 51.216 73.8885 57.5905 74.5189 58.1509C76.4103 61.093 77.5311 62.8443 77.8113 63.3346L77.391 65.8564H77.0407C76.1301 65.8564 75.4296 66.7671 75.4296 67.8879C75.4296 68.4483 75.6397 69.429 77.0407 69.429H79.7727C80.6833 69.429 81.3838 68.7285 81.3838 67.8179V62.1438C81.3838 62.0737 81.3838 62.0737 81.3838 62.0037C81.3838 61.9336 80.4031 59.1316 79.7026 56.9601C80.4031 58.0108 81.3838 58.9915 82.2244 59.4118C82.9249 59.7621 83.6254 59.9022 84.396 59.9022C87.6883 59.9022 89.9299 56.3997 90 56.2596C90 56.0494 90 55.9093 90 55.8393ZM84.3259 59.0616C83.6955 59.0616 83.065 58.9215 82.5046 58.6413C81.3138 58.0809 79.6326 56.0494 79.4224 54.7885V54.7185C79.4224 54.6484 79.3524 54.4383 79.3524 54.1581L79.5625 46.3825C79.5625 45.9622 79.6326 45.6119 79.6326 45.2617C81.5239 49.955 83.2051 52.687 84.3259 53.8078C85.7269 55.2088 88.1086 55.9093 89.1594 56.1195C88.3888 57.1002 86.5675 59.0616 84.3259 59.0616ZM78.5118 55.7692C78.5118 55.8393 78.5118 55.8393 78.5118 55.9093C78.7219 56.5398 80.4031 61.5133 80.6133 62.0737V67.6777C80.6133 68.1681 80.193 68.5884 79.7026 68.5884H76.9707C76.2001 68.5884 76.06 68.3082 76.06 67.7478C76.06 67.0473 76.4803 66.4168 76.9707 66.4168H77.6011H78.7219C78.9321 66.4168 79.0722 66.2767 79.0722 66.0666C79.0722 65.8564 78.9321 65.7163 78.7219 65.7163H78.0214L78.4417 63.1245C78.4417 63.0544 78.4417 62.9143 78.3717 62.8443C78.2316 62.7042 76.2702 59.5519 75.0093 57.5205L74.9392 57.4504C74.589 57.1702 66.8134 50.5155 65.1322 49.3246C63.5911 48.1337 61.3495 42.5297 63.3109 39.8678C63.451 39.7277 63.3809 39.5176 63.2408 39.3775C63.1007 39.2374 62.8906 39.3074 62.7505 39.4475C60.7891 42.1094 62.4002 46.9429 63.9413 49.1144C60.5789 51.3561 54.4846 52.7571 48.11 52.7571C46.2186 52.7571 44.3973 52.617 42.7161 52.3368L43.2765 46.5926C43.2765 46.3825 43.1364 46.2424 42.9963 46.2424C42.7862 46.2424 42.6461 46.3825 42.6461 46.5226L42.0857 52.3368L42.3659 58.0108L41.105 66.7671C40.8248 67.6777 40.6146 67.9579 39.9842 68.028C39.9141 68.028 39.774 68.028 39.6339 68.028H35.641C35.2207 68.028 34.8705 67.6777 34.8705 67.2574V66.8371C34.8705 66.4168 35.2207 66.0666 35.641 66.0666H38.0228C38.0928 66.0666 38.2329 65.9965 38.303 65.9265C38.373 65.8564 38.373 65.7163 38.373 65.6463L37.3923 58.0108L34.7304 46.8028L34.6603 46.1023C34.3801 42.95 33.8197 37.6262 36.2715 36.9257C36.4817 36.8557 36.5517 36.6455 36.4817 36.5054C36.4116 36.2953 36.2014 36.2252 36.0613 36.2953C33.1192 37.2059 33.6096 42.5998 33.9598 46.2424L34.0299 47.0129L34.6603 49.7449C32.839 48.6241 31.438 47.2931 30.5274 45.682C27.6553 40.2181 26.7447 35.3846 26.8147 32.7227L27.3051 25.6476C27.3051 25.5075 27.235 25.2974 27.0249 25.2974C27.0249 25.2974 23.9427 24.3867 22.0513 23.8964C20.5102 23.406 20.6503 22.7055 20.6503 22.5654C20.6503 22.3553 20.6503 22.2852 21.1407 22.2852C21.3508 22.2852 21.561 22.2852 21.7711 22.2852L25.834 22.6355C25.9741 22.6355 26.1843 22.5654 26.1843 22.3553C26.2543 22.2152 26.1843 22.005 26.0442 21.935C25.6939 21.7949 22.6818 20.1837 21.7011 19.4132C20.5803 18.7127 21.0006 16.6812 21.0006 16.6812C21.2107 16.0508 21.7711 15.7005 22.5417 15.7005C22.7518 15.7005 22.962 15.7706 23.1721 15.8406L27.165 17.1015C27.3051 17.1716 27.4452 17.1015 27.5152 17.0315C28.2858 16.2609 29.3365 15.8406 30.4573 15.8406H30.8076C31.438 15.8406 32.0685 15.9807 32.6289 16.2609C32.1385 16.331 31.8583 16.7513 31.5781 17.3117L29.5467 23.7563C29.4766 24.0365 29.4766 24.5969 29.8269 25.0172C29.967 25.1573 30.1771 25.3674 30.5974 25.3674C30.8076 25.3674 31.0177 25.2974 31.368 25.2273L36.1314 22.4253C36.3416 22.3553 36.4817 22.2152 36.6218 22.0751C38.0928 24.6669 40.0542 28.2395 40.6146 29.2902C42.3659 32.6526 46.9191 32.8628 49.6511 32.9329C50.2115 32.9329 50.7018 33.0029 51.1221 33.0029C51.8226 33.073 53.5038 33.143 56.1658 33.143C60.719 33.143 66.6032 33.0029 66.6733 33.0029C68.8448 33.0029 71.1565 33.6334 72.9778 34.6841H73.0479C73.0479 34.7542 73.1179 34.7542 73.188 34.8242C77.391 37.6262 79.2123 41.2688 78.792 46.3825L78.5118 55.7692ZM36.5517 20.8842C36.4817 21.1644 36.2014 21.4446 35.7111 21.7248L31.0177 24.5268C30.5974 24.6669 30.3172 24.5969 30.2472 24.5268C30.1771 24.3867 30.1071 24.1766 30.1071 23.8964L32.1385 17.5218C32.4187 16.9614 32.5588 16.8914 32.6989 16.8914C32.769 16.8914 32.839 16.8914 32.9791 16.9614C33.3294 17.1015 35.0106 18.7827 36.4116 20.2538C36.5517 20.534 36.6218 20.7441 36.5517 20.8842Z"/>
</mask>
<path d="M90 55.8393C89.9299 55.6992 89.8599 55.6291 89.7198 55.6291C89.7198 55.6291 86.3574 54.9987 84.6762 53.3875C84.2559 52.9672 82.1544 50.5855 79.2823 42.95C78.792 39.5176 76.9707 36.7156 73.9585 34.544C73.8885 34.474 73.8184 34.474 73.8184 34.4039C73.7484 34.3339 73.6083 34.2638 73.5382 34.1938H73.4682C71.5067 33.0029 69.055 32.3024 66.6733 32.3024C66.6032 32.3024 60.719 32.4425 56.1658 32.4425C53.5038 32.4425 51.8226 32.3724 51.1922 32.3024C50.7719 32.2323 50.2815 32.2323 49.6511 32.2323C46.9191 32.0922 42.7862 31.8821 41.175 28.94C40.6146 27.8192 38.5131 24.1065 37.0421 21.5147C37.1121 21.3746 37.1822 21.2345 37.1822 21.0944C37.2522 20.6741 37.1822 20.2538 36.902 19.9035C36.6918 19.5533 36.0613 18.9228 35.3608 18.2223C34.6603 16.401 32.839 15.1401 30.8076 15.1401H30.4573C29.2665 15.1401 28.0756 15.5604 27.165 16.401L23.3823 15.1401C23.1021 15.0701 22.8219 15 22.5417 15C21.4909 15 20.6503 15.5604 20.3701 16.5411C20.3701 16.6112 19.8097 18.9929 21.3508 19.9736C21.9813 20.4639 23.2422 21.2345 24.2929 21.8649L21.8412 21.6548C21.561 21.6548 21.3508 21.6548 21.1407 21.6548C20.7904 21.6548 20.0199 21.6548 20.0199 22.5654C20.0199 22.6355 19.6696 23.9664 21.9112 24.5969C23.5224 25.0172 25.834 25.7177 26.6046 25.9278L26.1142 32.7227C25.9741 35.5247 26.9548 40.4983 29.8969 46.0322C31.0177 48.1337 32.839 49.6748 34.8705 50.7957L36.6918 58.291L37.6025 65.5062H35.641C34.8705 65.5062 34.17 66.1366 34.17 66.9772V67.3275C34.17 68.098 34.8004 68.7986 35.641 68.7986H39.6339C39.704 68.7986 39.774 68.7986 39.8441 68.7986C39.9141 68.7986 39.9842 68.7986 40.0542 68.7986C41.175 68.7285 41.5253 68.028 41.8055 66.9772L43.0664 58.1509L42.7862 53.2474C44.8877 53.5276 46.8491 53.5977 48.18 53.5977C54.6947 53.5977 60.9992 52.1266 64.4317 49.7449C64.5718 49.885 64.6418 49.955 64.7819 50.0251C66.323 51.216 73.8885 57.5905 74.5189 58.1509C76.4103 61.093 77.5311 62.8443 77.8113 63.3346L77.391 65.8564H77.0407C76.1301 65.8564 75.4296 66.7671 75.4296 67.8879C75.4296 68.4483 75.6397 69.429 77.0407 69.429H79.7727C80.6833 69.429 81.3838 68.7285 81.3838 67.8179V62.1438C81.3838 62.0737 81.3838 62.0737 81.3838 62.0037C81.3838 61.9336 80.4031 59.1316 79.7026 56.9601C80.4031 58.0108 81.3838 58.9915 82.2244 59.4118C82.9249 59.7621 83.6254 59.9022 84.396 59.9022C87.6883 59.9022 89.9299 56.3997 90 56.2596C90 56.0494 90 55.9093 90 55.8393ZM84.3259 59.0616C83.6955 59.0616 83.065 58.9215 82.5046 58.6413C81.3138 58.0809 79.6326 56.0494 79.4224 54.7885V54.7185C79.4224 54.6484 79.3524 54.4383 79.3524 54.1581L79.5625 46.3825C79.5625 45.9622 79.6326 45.6119 79.6326 45.2617C81.5239 49.955 83.2051 52.687 84.3259 53.8078C85.7269 55.2088 88.1086 55.9093 89.1594 56.1195C88.3888 57.1002 86.5675 59.0616 84.3259 59.0616ZM78.5118 55.7692C78.5118 55.8393 78.5118 55.8393 78.5118 55.9093C78.7219 56.5398 80.4031 61.5133 80.6133 62.0737V67.6777C80.6133 68.1681 80.193 68.5884 79.7026 68.5884H76.9707C76.2001 68.5884 76.06 68.3082 76.06 67.7478C76.06 67.0473 76.4803 66.4168 76.9707 66.4168H77.6011H78.7219C78.9321 66.4168 79.0722 66.2767 79.0722 66.0666C79.0722 65.8564 78.9321 65.7163 78.7219 65.7163H78.0214L78.4417 63.1245C78.4417 63.0544 78.4417 62.9143 78.3717 62.8443C78.2316 62.7042 76.2702 59.5519 75.0093 57.5205L74.9392 57.4504C74.589 57.1702 66.8134 50.5155 65.1322 49.3246C63.5911 48.1337 61.3495 42.5297 63.3109 39.8678C63.451 39.7277 63.3809 39.5176 63.2408 39.3775C63.1007 39.2374 62.8906 39.3074 62.7505 39.4475C60.7891 42.1094 62.4002 46.9429 63.9413 49.1144C60.5789 51.3561 54.4846 52.7571 48.11 52.7571C46.2186 52.7571 44.3973 52.617 42.7161 52.3368L43.2765 46.5926C43.2765 46.3825 43.1364 46.2424 42.9963 46.2424C42.7862 46.2424 42.6461 46.3825 42.6461 46.5226L42.0857 52.3368L42.3659 58.0108L41.105 66.7671C40.8248 67.6777 40.6146 67.9579 39.9842 68.028C39.9141 68.028 39.774 68.028 39.6339 68.028H35.641C35.2207 68.028 34.8705 67.6777 34.8705 67.2574V66.8371C34.8705 66.4168 35.2207 66.0666 35.641 66.0666H38.0228C38.0928 66.0666 38.2329 65.9965 38.303 65.9265C38.373 65.8564 38.373 65.7163 38.373 65.6463L37.3923 58.0108L34.7304 46.8028L34.6603 46.1023C34.3801 42.95 33.8197 37.6262 36.2715 36.9257C36.4817 36.8557 36.5517 36.6455 36.4817 36.5054C36.4116 36.2953 36.2014 36.2252 36.0613 36.2953C33.1192 37.2059 33.6096 42.5998 33.9598 46.2424L34.0299 47.0129L34.6603 49.7449C32.839 48.6241 31.438 47.2931 30.5274 45.682C27.6553 40.2181 26.7447 35.3846 26.8147 32.7227L27.3051 25.6476C27.3051 25.5075 27.235 25.2974 27.0249 25.2974C27.0249 25.2974 23.9427 24.3867 22.0513 23.8964C20.5102 23.406 20.6503 22.7055 20.6503 22.5654C20.6503 22.3553 20.6503 22.2852 21.1407 22.2852C21.3508 22.2852 21.561 22.2852 21.7711 22.2852L25.834 22.6355C25.9741 22.6355 26.1843 22.5654 26.1843 22.3553C26.2543 22.2152 26.1843 22.005 26.0442 21.935C25.6939 21.7949 22.6818 20.1837 21.7011 19.4132C20.5803 18.7127 21.0006 16.6812 21.0006 16.6812C21.2107 16.0508 21.7711 15.7005 22.5417 15.7005C22.7518 15.7005 22.962 15.7706 23.1721 15.8406L27.165 17.1015C27.3051 17.1716 27.4452 17.1015 27.5152 17.0315C28.2858 16.2609 29.3365 15.8406 30.4573 15.8406H30.8076C31.438 15.8406 32.0685 15.9807 32.6289 16.2609C32.1385 16.331 31.8583 16.7513 31.5781 17.3117L29.5467 23.7563C29.4766 24.0365 29.4766 24.5969 29.8269 25.0172C29.967 25.1573 30.1771 25.3674 30.5974 25.3674C30.8076 25.3674 31.0177 25.2974 31.368 25.2273L36.1314 22.4253C36.3416 22.3553 36.4817 22.2152 36.6218 22.0751C38.0928 24.6669 40.0542 28.2395 40.6146 29.2902C42.3659 32.6526 46.9191 32.8628 49.6511 32.9329C50.2115 32.9329 50.7018 33.0029 51.1221 33.0029C51.8226 33.073 53.5038 33.143 56.1658 33.143C60.719 33.143 66.6032 33.0029 66.6733 33.0029C68.8448 33.0029 71.1565 33.6334 72.9778 34.6841H73.0479C73.0479 34.7542 73.1179 34.7542 73.188 34.8242C77.391 37.6262 79.2123 41.2688 78.792 46.3825L78.5118 55.7692ZM36.5517 20.8842C36.4817 21.1644 36.2014 21.4446 35.7111 21.7248L31.0177 24.5268C30.5974 24.6669 30.3172 24.5969 30.2472 24.5268C30.1771 24.3867 30.1071 24.1766 30.1071 23.8964L32.1385 17.5218C32.4187 16.9614 32.5588 16.8914 32.6989 16.8914C32.769 16.8914 32.839 16.8914 32.9791 16.9614C33.3294 17.1015 35.0106 18.7827 36.4116 20.2538C36.5517 20.534 36.6218 20.7441 36.5517 20.8842Z" fill="white"/>
<path d="M90 55.8393C89.9299 55.6992 89.8599 55.6291 89.7198 55.6291C89.7198 55.6291 86.3574 54.9987 84.6762 53.3875C84.2559 52.9672 82.1544 50.5855 79.2823 42.95C78.792 39.5176 76.9707 36.7156 73.9585 34.544C73.8885 34.474 73.8184 34.474 73.8184 34.4039C73.7484 34.3339 73.6083 34.2638 73.5382 34.1938H73.4682C71.5067 33.0029 69.055 32.3024 66.6733 32.3024C66.6032 32.3024 60.719 32.4425 56.1658 32.4425C53.5038 32.4425 51.8226 32.3724 51.1922 32.3024C50.7719 32.2323 50.2815 32.2323 49.6511 32.2323C46.9191 32.0922 42.7862 31.8821 41.175 28.94C40.6146 27.8192 38.5131 24.1065 37.0421 21.5147C37.1121 21.3746 37.1822 21.2345 37.1822 21.0944C37.2522 20.6741 37.1822 20.2538 36.902 19.9035C36.6918 19.5533 36.0613 18.9228 35.3608 18.2223C34.6603 16.401 32.839 15.1401 30.8076 15.1401H30.4573C29.2665 15.1401 28.0756 15.5604 27.165 16.401L23.3823 15.1401C23.1021 15.0701 22.8219 15 22.5417 15C21.4909 15 20.6503 15.5604 20.3701 16.5411C20.3701 16.6112 19.8097 18.9929 21.3508 19.9736C21.9813 20.4639 23.2422 21.2345 24.2929 21.8649L21.8412 21.6548C21.561 21.6548 21.3508 21.6548 21.1407 21.6548C20.7904 21.6548 20.0199 21.6548 20.0199 22.5654C20.0199 22.6355 19.6696 23.9664 21.9112 24.5969C23.5224 25.0172 25.834 25.7177 26.6046 25.9278L26.1142 32.7227C25.9741 35.5247 26.9548 40.4983 29.8969 46.0322C31.0177 48.1337 32.839 49.6748 34.8705 50.7957L36.6918 58.291L37.6025 65.5062H35.641C34.8705 65.5062 34.17 66.1366 34.17 66.9772V67.3275C34.17 68.098 34.8004 68.7986 35.641 68.7986H39.6339C39.704 68.7986 39.774 68.7986 39.8441 68.7986C39.9141 68.7986 39.9842 68.7986 40.0542 68.7986C41.175 68.7285 41.5253 68.028 41.8055 66.9772L43.0664 58.1509L42.7862 53.2474C44.8877 53.5276 46.8491 53.5977 48.18 53.5977C54.6947 53.5977 60.9992 52.1266 64.4317 49.7449C64.5718 49.885 64.6418 49.955 64.7819 50.0251C66.323 51.216 73.8885 57.5905 74.5189 58.1509C76.4103 61.093 77.5311 62.8443 77.8113 63.3346L77.391 65.8564H77.0407C76.1301 65.8564 75.4296 66.7671 75.4296 67.8879C75.4296 68.4483 75.6397 69.429 77.0407 69.429H79.7727C80.6833 69.429 81.3838 68.7285 81.3838 67.8179V62.1438C81.3838 62.0737 81.3838 62.0737 81.3838 62.0037C81.3838 61.9336 80.4031 59.1316 79.7026 56.9601C80.4031 58.0108 81.3838 58.9915 82.2244 59.4118C82.9249 59.7621 83.6254 59.9022 84.396 59.9022C87.6883 59.9022 89.9299 56.3997 90 56.2596C90 56.0494 90 55.9093 90 55.8393ZM84.3259 59.0616C83.6955 59.0616 83.065 58.9215 82.5046 58.6413C81.3138 58.0809 79.6326 56.0494 79.4224 54.7885V54.7185C79.4224 54.6484 79.3524 54.4383 79.3524 54.1581L79.5625 46.3825C79.5625 45.9622 79.6326 45.6119 79.6326 45.2617C81.5239 49.955 83.2051 52.687 84.3259 53.8078C85.7269 55.2088 88.1086 55.9093 89.1594 56.1195C88.3888 57.1002 86.5675 59.0616 84.3259 59.0616ZM78.5118 55.7692C78.5118 55.8393 78.5118 55.8393 78.5118 55.9093C78.7219 56.5398 80.4031 61.5133 80.6133 62.0737V67.6777C80.6133 68.1681 80.193 68.5884 79.7026 68.5884H76.9707C76.2001 68.5884 76.06 68.3082 76.06 67.7478C76.06 67.0473 76.4803 66.4168 76.9707 66.4168H77.6011H78.7219C78.9321 66.4168 79.0722 66.2767 79.0722 66.0666C79.0722 65.8564 78.9321 65.7163 78.7219 65.7163H78.0214L78.4417 63.1245C78.4417 63.0544 78.4417 62.9143 78.3717 62.8443C78.2316 62.7042 76.2702 59.5519 75.0093 57.5205L74.9392 57.4504C74.589 57.1702 66.8134 50.5155 65.1322 49.3246C63.5911 48.1337 61.3495 42.5297 63.3109 39.8678C63.451 39.7277 63.3809 39.5176 63.2408 39.3775C63.1007 39.2374 62.8906 39.3074 62.7505 39.4475C60.7891 42.1094 62.4002 46.9429 63.9413 49.1144C60.5789 51.3561 54.4846 52.7571 48.11 52.7571C46.2186 52.7571 44.3973 52.617 42.7161 52.3368L43.2765 46.5926C43.2765 46.3825 43.1364 46.2424 42.9963 46.2424C42.7862 46.2424 42.6461 46.3825 42.6461 46.5226L42.0857 52.3368L42.3659 58.0108L41.105 66.7671C40.8248 67.6777 40.6146 67.9579 39.9842 68.028C39.9141 68.028 39.774 68.028 39.6339 68.028H35.641C35.2207 68.028 34.8705 67.6777 34.8705 67.2574V66.8371C34.8705 66.4168 35.2207 66.0666 35.641 66.0666H38.0228C38.0928 66.0666 38.2329 65.9965 38.303 65.9265C38.373 65.8564 38.373 65.7163 38.373 65.6463L37.3923 58.0108L34.7304 46.8028L34.6603 46.1023C34.3801 42.95 33.8197 37.6262 36.2715 36.9257C36.4817 36.8557 36.5517 36.6455 36.4817 36.5054C36.4116 36.2953 36.2014 36.2252 36.0613 36.2953C33.1192 37.2059 33.6096 42.5998 33.9598 46.2424L34.0299 47.0129L34.6603 49.7449C32.839 48.6241 31.438 47.2931 30.5274 45.682C27.6553 40.2181 26.7447 35.3846 26.8147 32.7227L27.3051 25.6476C27.3051 25.5075 27.235 25.2974 27.0249 25.2974C27.0249 25.2974 23.9427 24.3867 22.0513 23.8964C20.5102 23.406 20.6503 22.7055 20.6503 22.5654C20.6503 22.3553 20.6503 22.2852 21.1407 22.2852C21.3508 22.2852 21.561 22.2852 21.7711 22.2852L25.834 22.6355C25.9741 22.6355 26.1843 22.5654 26.1843 22.3553C26.2543 22.2152 26.1843 22.005 26.0442 21.935C25.6939 21.7949 22.6818 20.1837 21.7011 19.4132C20.5803 18.7127 21.0006 16.6812 21.0006 16.6812C21.2107 16.0508 21.7711 15.7005 22.5417 15.7005C22.7518 15.7005 22.962 15.7706 23.1721 15.8406L27.165 17.1015C27.3051 17.1716 27.4452 17.1015 27.5152 17.0315C28.2858 16.2609 29.3365 15.8406 30.4573 15.8406H30.8076C31.438 15.8406 32.0685 15.9807 32.6289 16.2609C32.1385 16.331 31.8583 16.7513 31.5781 17.3117L29.5467 23.7563C29.4766 24.0365 29.4766 24.5969 29.8269 25.0172C29.967 25.1573 30.1771 25.3674 30.5974 25.3674C30.8076 25.3674 31.0177 25.2974 31.368 25.2273L36.1314 22.4253C36.3416 22.3553 36.4817 22.2152 36.6218 22.0751C38.0928 24.6669 40.0542 28.2395 40.6146 29.2902C42.3659 32.6526 46.9191 32.8628 49.6511 32.9329C50.2115 32.9329 50.7018 33.0029 51.1221 33.0029C51.8226 33.073 53.5038 33.143 56.1658 33.143C60.719 33.143 66.6032 33.0029 66.6733 33.0029C68.8448 33.0029 71.1565 33.6334 72.9778 34.6841H73.0479C73.0479 34.7542 73.1179 34.7542 73.188 34.8242C77.391 37.6262 79.2123 41.2688 78.792 46.3825L78.5118 55.7692ZM36.5517 20.8842C36.4817 21.1644 36.2014 21.4446 35.7111 21.7248L31.0177 24.5268C30.5974 24.6669 30.3172 24.5969 30.2472 24.5268C30.1771 24.3867 30.1071 24.1766 30.1071 23.8964L32.1385 17.5218C32.4187 16.9614 32.5588 16.8914 32.6989 16.8914C32.769 16.8914 32.839 16.8914 32.9791 16.9614C33.3294 17.1015 35.0106 18.7827 36.4116 20.2538C36.5517 20.534 36.6218 20.7441 36.5517 20.8842Z" stroke="white" stroke-width="2" mask="url(#path-2-outside-1_1106_531)"/>
<path d="M130 58.6171V28.748C130 26.9518 131.386 25.5661 133.182 25.5661H144.165C152.581 25.5661 157.816 30.339 157.816 37.5753V37.678C157.816 45.7354 151.35 49.9438 143.446 49.9438H136.313V58.6171C136.313 60.3621 134.927 61.7478 133.182 61.7478C131.386 61.7478 130 60.3621 130 58.6171V58.6171ZM136.313 44.2471H143.652C148.424 44.2471 151.401 41.5784 151.401 37.8319V37.7293C151.401 33.5209 148.373 31.3141 143.652 31.3141H136.313V44.2471ZM168.235 46.0434H182.143C181.732 42.0403 179.371 38.9097 175.266 38.9097C171.468 38.9097 168.799 41.835 168.235 46.0434V46.0434ZM185.735 58.5145C183.272 60.7213 180.192 62.107 175.984 62.107C168.132 62.107 162.076 56.4103 162.076 48.0449V47.9423C162.076 40.1927 167.567 33.8288 175.317 33.8288C183.939 33.8288 188.199 40.9112 188.199 47.1724C188.199 48.9174 186.864 50.1491 185.273 50.1491H168.286C168.953 54.5627 172.084 57.0262 176.087 57.0262C178.704 57.0262 180.757 56.1024 182.502 54.6654C182.964 54.3061 183.374 54.1008 184.093 54.1008C185.479 54.1008 186.556 55.1786 186.556 56.6156C186.556 57.3854 186.197 58.0526 185.735 58.5145V58.5145ZM203.646 61.953C199.079 61.953 195.846 59.9515 195.846 53.9982V39.7308H194.819C193.331 39.7308 192.15 38.5504 192.15 37.0621C192.15 35.5738 193.331 34.3934 194.819 34.3934H195.846V29.7744C195.846 28.0808 197.231 26.6952 198.976 26.6952C200.67 26.6952 202.055 28.0808 202.055 29.7744V34.3934H206.931C208.419 34.3934 209.651 35.5738 209.651 37.0621C209.651 38.5504 208.419 39.7308 206.931 39.7308H202.055V53.0231C202.055 55.4352 203.287 56.4103 205.391 56.4103C206.11 56.4103 206.726 56.2563 206.931 56.2563C208.317 56.2563 209.548 57.3854 209.548 58.8224C209.548 59.9515 208.779 60.8753 207.906 61.2345C206.572 61.6964 205.289 61.953 203.646 61.953V61.953ZM216.374 58.6171V28.748C216.374 26.9518 217.76 25.5661 219.556 25.5661H240.495C242.086 25.5661 243.369 26.8491 243.369 28.4401C243.369 30.031 242.086 31.3141 240.495 31.3141H222.687V41.1165H238.186C239.777 41.1165 241.06 42.3995 241.06 43.9905C241.06 45.5815 239.777 46.8645 238.186 46.8645H222.687V58.6171C222.687 60.3621 221.301 61.7478 219.556 61.7478C217.76 61.7478 216.374 60.3621 216.374 58.6171V58.6171ZM257.123 62.0557C252.043 62.0557 247.526 59.1304 247.526 53.6903V53.5876C247.526 47.737 252.094 44.863 258.714 44.863C261.742 44.863 263.898 45.3249 266.002 45.992V45.3249C266.002 41.4758 263.641 39.4229 259.279 39.4229C256.918 39.4229 254.968 39.8335 253.274 40.5006C252.915 40.6033 252.607 40.6546 252.299 40.6546C250.862 40.6546 249.682 39.5255 249.682 38.0885C249.682 36.9595 250.452 35.9843 251.375 35.6251C253.942 34.65 256.559 34.0341 260.1 34.0341C264.154 34.0341 267.182 35.1119 269.081 37.0621C271.083 39.0123 272.007 41.8863 272.007 45.4275V58.7711C272.007 60.4647 270.672 61.7478 268.979 61.7478C267.182 61.7478 265.951 60.516 265.951 59.1304V58.1039C264.103 60.3108 261.28 62.0557 257.123 62.0557V62.0557ZM258.868 57.5394C262.974 57.5394 266.105 55.1786 266.105 51.7401V49.8925C264.514 49.2766 262.41 48.8147 259.946 48.8147C255.943 48.8147 253.582 50.5083 253.582 53.331V53.4337C253.582 56.0511 255.892 57.5394 258.868 57.5394V57.5394ZM260.357 31.2114C259.484 31.2114 258.817 30.8009 258.817 30.1337C258.817 29.7744 259.022 29.3125 259.228 29.0046L262.153 24.4883C262.717 23.5645 263.539 23 264.616 23C266.259 23 268.312 24.0264 268.312 25.0015C268.312 25.5661 267.952 26.0793 267.439 26.5412L264.001 29.8258C262.769 30.9548 261.794 31.2114 260.357 31.2114V31.2114ZM291.971 62.107C283.913 62.107 277.96 55.7945 277.96 48.0962V47.9936C277.96 40.2954 283.913 33.8288 292.073 33.8288C296.333 33.8288 299.258 35.2145 301.568 37.2161C301.978 37.5753 302.543 38.3451 302.543 39.3716C302.543 40.9625 301.26 42.1943 299.669 42.1943C298.899 42.1943 298.232 41.8863 297.821 41.5784C296.23 40.244 294.486 39.2689 292.022 39.2689C287.506 39.2689 284.17 43.1694 284.17 47.8909V47.9936C284.17 52.8178 287.506 56.6669 292.279 56.6669C294.742 56.6669 296.641 55.6918 298.335 54.2548C298.694 53.9469 299.31 53.5876 300.028 53.5876C301.517 53.5876 302.697 54.8193 302.697 56.3077C302.697 57.1288 302.389 57.796 301.824 58.2579C299.412 60.5674 296.487 62.107 291.971 62.107V62.107ZM308.65 27.4137V27.1057C308.65 25.2581 310.19 24.0778 312.191 24.0778C314.193 24.0778 315.733 25.2581 315.733 27.1057V27.4137C315.733 29.2612 314.193 30.4929 312.191 30.4929C310.19 30.4929 308.65 29.2612 308.65 27.4137ZM309.112 58.6685V37.2161C309.112 35.4711 310.447 34.0854 312.191 34.0854C313.936 34.0854 315.322 35.4711 315.322 37.2161V58.6685C315.322 60.4134 313.936 61.7478 312.191 61.7478C310.498 61.7478 309.112 60.4134 309.112 58.6685ZM323.79 58.6685V26.8491C323.79 25.1555 325.124 23.7698 326.869 23.7698C328.614 23.7698 330 25.1555 330 26.8491V58.6685C330 60.4134 328.614 61.7478 326.869 61.7478C325.176 61.7478 323.79 60.4134 323.79 58.6685Z" fill="#F27781"/>
</svg>

